<svg width="110" height="108" viewBox="0 0 110 108" fill="none" xmlns="http://www.w3.org/2000/svg">
<path d="M17.5 76.5C28 70.5 54 68.5 54 68.5C54 68.5 85.5 68.5 94.5 73.78C103.5 79.06 110.009 105.5 110.009 105.5L0.00907898 107.5C0.00907898 107.5 6.99997 82.5 17.5 76.5Z" fill="#C9C9C9"/>
<path d="M85 30C85 46.5685 71.5685 60 55 60C38.4315 60 25 46.5685 25 30C25 13.4315 38.4315 0 55 0C71.5685 0 85 13.4315 85 30Z" fill="#D9D9D9"/>
<path d="M54.0892 69C54.1485 69.0002 54.237 69.0003 54.3528 69.001C54.5848 69.0023 54.9272 69.0056 55.3655 69.0107C56.2422 69.021 57.5052 69.0409 59.0491 69.082C62.1377 69.1644 66.3483 69.3289 70.8382 69.6582C75.3298 69.9876 80.0928 70.4813 84.2884 71.2197C88.5015 71.9612 92.0806 72.9398 94.2474 74.2109C96.3823 75.4635 98.4232 78.0129 100.288 81.2158C102.145 84.4037 103.791 88.1752 105.162 91.7969C106.533 95.4163 107.623 98.8736 108.371 101.427C108.746 102.703 109.034 103.753 109.229 104.482C109.282 104.683 109.327 104.86 109.367 105.011L0.679977 106.987C0.717463 106.862 0.759529 106.718 0.807907 106.56C1.01835 105.868 1.33153 104.873 1.73955 103.659C2.55581 101.231 3.75211 97.933 5.2747 94.4502C6.79814 90.9655 8.64364 87.3074 10.7532 84.1533C12.8681 80.9914 15.2218 78.3783 17.7483 76.9346C22.9089 73.9857 31.9474 71.9953 39.7669 70.7441C43.6625 70.1209 47.2319 69.6839 49.8274 69.4033C51.1249 69.2631 52.1786 69.1619 52.9075 69.0957C53.272 69.0626 53.5555 69.0385 53.7474 69.0225C53.8431 69.0145 53.9162 69.0078 53.9651 69.0039L54.0198 69H54.0892ZM55.0003 0.5C71.2926 0.500155 84.5003 13.7077 84.5003 30C84.5003 46.2923 71.2926 59.4998 55.0003 59.5C38.7079 59.5 25.5003 46.2924 25.5003 30C25.5003 13.7076 38.7079 0.5 55.0003 0.5Z" stroke="black"/>
</svg>
