<svg width="122" height="97" viewBox="0 0 122 97" fill="none" xmlns="http://www.w3.org/2000/svg">
<g filter="url(#filter0_i_2_121)">
<path d="M46.228 78C33.5613 77 12.028 64.2 27.228 21H46.228V78Z" fill="url(#paint0_linear_2_121)"/>
<path d="M76 78C88.6667 77 110.2 64.2 95 21H76V78Z" fill="url(#paint1_linear_2_121)"/>
<path d="M49 75V21H73V75L61 96L49 75Z" fill="url(#paint2_linear_2_121)"/>
<path d="M54.5 96L1 58C1.5 42.5 7 8.5 7 8.5C7 8.5 18 11 20 1L58.5 2V17.5H19L16 56L21 66.5L54.5 96Z" fill="url(#paint3_linear_2_121)"/>
<path d="M68 96L121.5 58C121 42.5 115.5 8.5 115.5 8.5C115.5 8.5 104.5 11 102.5 1L64 2V17.5H103.5L106.5 56L101.5 66.5L68 96Z" fill="url(#paint4_linear_2_121)"/>
</g>
<path d="M46.228 78C33.5613 77 12.028 64.2 27.228 21H46.228V78Z" stroke="url(#paint5_linear_2_121)"/>
<path d="M76 78C88.6667 77 110.2 64.2 95 21H76V78Z" stroke="url(#paint6_linear_2_121)"/>
<path d="M49 75V21H73V75L61 96L49 75Z" stroke="url(#paint7_linear_2_121)"/>
<path d="M54.5 96L1 58C1.5 42.5 7 8.5 7 8.5C7 8.5 18 11 20 1L58.5 2V17.5H19L16 56L21 66.5L54.5 96Z" stroke="url(#paint8_linear_2_121)"/>
<path d="M68 96L121.5 58C121 42.5 115.5 8.5 115.5 8.5C115.5 8.5 104.5 11 102.5 1L64 2V17.5H103.5L106.5 56L101.5 66.5L68 96Z" stroke="url(#paint9_linear_2_121)"/>
<defs>
<filter id="filter0_i_2_121" x="0.491608" y="0.489243" width="121.517" height="100.519" filterUnits="userSpaceOnUse" color-interpolation-filters="sRGB">
<feFlood flood-opacity="0" result="BackgroundImageFix"/>
<feBlend mode="normal" in="SourceGraphic" in2="BackgroundImageFix" result="shape"/>
<feColorMatrix in="SourceAlpha" type="matrix" values="0 0 0 0 0 0 0 0 0 0 0 0 0 0 0 0 0 0 127 0" result="hardAlpha"/>
<feOffset dy="4"/>
<feGaussianBlur stdDeviation="2"/>
<feComposite in2="hardAlpha" operator="arithmetic" k2="-1" k3="1"/>
<feColorMatrix type="matrix" values="0 0 0 0 0 0 0 0 0 0 0 0 0 0 0 0 0 0 0.25 0"/>
<feBlend mode="normal" in2="shape" result="effect1_innerShadow_2_121"/>
</filter>
<linearGradient id="paint0_linear_2_121" x1="61.25" y1="1" x2="61.25" y2="96" gradientUnits="userSpaceOnUse">
<stop stop-color="#CB4848"/>
<stop offset="1" stop-color="#652424"/>
</linearGradient>
<linearGradient id="paint1_linear_2_121" x1="61.25" y1="1" x2="61.25" y2="96" gradientUnits="userSpaceOnUse">
<stop stop-color="#CB4848"/>
<stop offset="1" stop-color="#652424"/>
</linearGradient>
<linearGradient id="paint2_linear_2_121" x1="61.25" y1="1" x2="61.25" y2="96" gradientUnits="userSpaceOnUse">
<stop stop-color="#CB4848"/>
<stop offset="1" stop-color="#652424"/>
</linearGradient>
<linearGradient id="paint3_linear_2_121" x1="61.25" y1="1" x2="61.25" y2="96" gradientUnits="userSpaceOnUse">
<stop stop-color="#CB4848"/>
<stop offset="1" stop-color="#652424"/>
</linearGradient>
<linearGradient id="paint4_linear_2_121" x1="61.25" y1="1" x2="61.25" y2="96" gradientUnits="userSpaceOnUse">
<stop stop-color="#CB4848"/>
<stop offset="1" stop-color="#652424"/>
</linearGradient>
<linearGradient id="paint5_linear_2_121" x1="92.75" y1="1" x2="92.75" y2="96" gradientUnits="userSpaceOnUse">
<stop stop-color="#1E1E1E"/>
<stop offset="1" stop-color="white"/>
</linearGradient>
<linearGradient id="paint6_linear_2_121" x1="92.75" y1="1" x2="92.75" y2="96" gradientUnits="userSpaceOnUse">
<stop stop-color="#1E1E1E"/>
<stop offset="1" stop-color="white"/>
</linearGradient>
<linearGradient id="paint7_linear_2_121" x1="92.75" y1="1" x2="92.75" y2="96" gradientUnits="userSpaceOnUse">
<stop stop-color="#1E1E1E"/>
<stop offset="1" stop-color="white"/>
</linearGradient>
<linearGradient id="paint8_linear_2_121" x1="92.75" y1="1" x2="92.75" y2="96" gradientUnits="userSpaceOnUse">
<stop stop-color="#1E1E1E"/>
<stop offset="1" stop-color="white"/>
</linearGradient>
<linearGradient id="paint9_linear_2_121" x1="92.75" y1="1" x2="92.75" y2="96" gradientUnits="userSpaceOnUse">
<stop stop-color="#1E1E1E"/>
<stop offset="1" stop-color="white"/>
</linearGradient>
</defs>
</svg>
