<svg width="41" height="49" viewBox="0 0 41 49" fill="none" xmlns="http://www.w3.org/2000/svg">
<path d="M6.82618 47.6571L1.14802 6.49743L40 6.49743M39.998 6.54212L33.1244 48M6.82759 47.8265C6.82759 47.8265 9.91019 44.75 14.7471 43.1263M14.7471 43.1263C16.6454 42.489 18.814 42.0756 21.1724 42.1596C23.395 42.2388 25.2803 42.6758 26.8506 43.2748M14.7471 43.1263L7.57471 6.6669M26.8506 43.2748C31.1923 44.9311 33.1264 47.8265 33.1264 47.8265M26.8506 43.2748L33.4253 6.51778M9.36782 4.72823H1V5.77213H40V4.72823H32.3793M9.36782 4.72823V1H32.3793V4.72823M9.36782 4.72823H32.3793M10.8621 1.14913V4.72823M12.3563 1.14913V4.72823M13.8506 1.14913V4.72823M15.3448 1.14913V4.72823M16.8391 1.14913V4.72823M18.3333 1.14913V4.72823M19.8276 1.14913V4.72823M21.3218 1.14913V4.72823M22.8161 1.14913V4.72823M24.3103 1.14913V4.72823M25.8046 1.14913V4.72823M27.2988 1.14913V4.72823M28.7931 1.14913V4.72823M30.5862 1.14913V4.72823" stroke="white"/>
</svg>
